<svg width="68.853394" height="14.631104" viewBox="0 0 68.8534 14.6311" fill="none" xmlns="http://www.w3.org/2000/svg" xmlns:xlink="http://www.w3.org/1999/xlink">
	<desc>
			Created with Pixso.
	</desc>
	<defs/>
	<path id="takee" d="M28.89 14.33L25.93 14.33L25.93 0L28.89 0L28.89 7.91L35.04 4.18L39.11 4.18L33.23 8.14L39.75 14.33L35.91 14.33L30.92 9.7L28.89 11.07L28.89 14.33ZM2.6 11.14C2.6 12.33 2.95 13.21 3.66 13.77Q4.72 14.61 6.44 14.61C6.91 14.61 7.34 14.58 7.73 14.52C8.12 14.46 8.42 14.39 8.63 14.31L8.62 12.11C8.4 12.17 8.18 12.22 7.95 12.25Q7.61 12.31 7.24 12.31Q6.45 12.31 6 12.03Q5.93 11.98 5.88 11.93Q5.56 11.62 5.56 10.99L5.56 6.46L9 6.46L9 4.19L5.56 4.19L5.56 1.61L2.62 1.61L2.62 4.19L0 4.19L0 6.46L2.6 6.46L2.6 11.14ZM39.79 9.4C39.79 10.97 40.46 12.24 41.79 13.2Q43.8 14.63 47.29 14.63C48.78 14.63 50.08 14.43 51.16 14.03C52.25 13.63 53.03 13.09 53.5 12.41L51.4 11.01C50.99 11.38 50.43 11.7 49.73 11.97Q48.67 12.36 47.28 12.36Q45.03 12.36 43.82 11.6Q43.12 11.14 42.83 10.5Q42.72 10.27 42.67 10.01L53.72 10.01L53.72 8.93C53.72 7.36 53.12 6.13 51.91 5.24Q50.1 3.89 46.97 3.89Q43.83 3.89 41.81 5.33Q40.67 6.13 40.17 7.23Q39.79 8.08 39.79 9.1L39.79 9.4ZM56.92 13.2C55.59 12.24 54.92 10.97 54.92 9.4L54.92 9.1Q54.92 8.08 55.31 7.23Q55.8 6.13 56.94 5.33Q58.96 3.89 62.1 3.89Q65.23 3.89 67.05 5.24C68.25 6.13 68.86 7.36 68.85 8.93L68.85 10.01L57.8 10.01Q57.85 10.27 57.96 10.5Q58.25 11.14 58.95 11.6Q60.16 12.36 62.41 12.36C63.34 12.36 64.15 12.23 64.86 11.97C65.57 11.7 66.12 11.38 66.53 11.01L68.63 12.41C68.16 13.09 67.38 13.63 66.29 14.03C65.21 14.43 63.92 14.63 62.42 14.63Q58.93 14.63 56.92 13.2ZM57.88 8.16L65.95 8.16L65.96 8.3Q65.95 7.76 65.72 7.34Q65.51 6.96 65.1 6.68C64.54 6.29 63.5 6.09 61.97 6.09Q59.99 6.09 58.87 6.87C58.37 7.22 58.04 7.65 57.88 8.16ZM10.3 12.55Q10.66 13.25 11.49 13.71Q12.95 14.52 15.16 14.52C16.51 14.52 17.67 14.37 18.65 14.09Q20.13 13.65 20.59 13.03C20.63 13.26 20.69 13.51 20.78 13.75C20.87 14 20.98 14.19 21.09 14.33L23.98 14.33L23.98 14.18C23.8 13.92 23.65 13.6 23.53 13.22Q23.37 12.66 23.37 12.03L23.37 7.4Q23.37 6.57 23.01 5.94Q22.61 5.23 21.75 4.77Q20.14 3.9 17.27 3.9Q14.4 3.9 12.62 4.75Q11.3 5.37 10.96 6.34L10.96 6.34Q10.83 6.68 10.83 7.07L10.83 7.3L13.74 7.3L13.74 7.08Q13.74 6.99 13.77 6.9L13.77 6.9L13.77 6.9Q13.89 6.5 14.57 6.27Q15.4 5.97 17.1 5.97C18.27 5.97 19.12 6.09 19.63 6.33Q20.16 6.56 20.33 6.96Q20.41 7.14 20.41 7.36L20.41 7.94L16.58 7.93Q13.67 7.93 11.84 8.81Q10.64 9.38 10.24 10.31L10.24 10.31Q10.03 10.78 10.03 11.34Q10.03 12.02 10.3 12.55ZM50.82 8.16L42.75 8.16C42.91 7.65 43.24 7.22 43.74 6.87Q44.86 6.09 46.84 6.09Q49.13 6.09 49.97 6.68C50.54 7.06 50.82 7.6 50.83 8.3L50.82 8.16ZM13.01 11.15C13.01 10.69 13.36 10.34 14.06 10.11C14.76 9.87 15.77 9.75 17.07 9.76L20.42 9.76L20.42 10.64Q20.42 10.74 20.4 10.84Q20.25 11.5 19.14 11.95Q17.87 12.47 16.24 12.47Q14.58 12.47 13.79 12.14Q13.23 11.89 13.07 11.48L13.07 11.48Q13.01 11.33 13.01 11.15Z" fill="#333333" fill-opacity="1.000000" fill-rule="evenodd"/>
</svg>
